<mxfile host="app.diagrams.net" agent="Mozilla/5.0 (Windows NT 10.0; Win64; x64) AppleWebKit/537.36 (KHTML, like Gecko) Chrome/130.0.0.0 Safari/537.36" version="25.0.3">
  <diagram name="Trang-1" id="Cqt9ty7Idfp_fS45E1V1">
    <mxGraphModel dx="1503" dy="766" grid="1" gridSize="10" guides="1" tooltips="1" connect="1" arrows="1" fold="1" page="1" pageScale="1" pageWidth="3300" pageHeight="4681" math="0" shadow="0">
      <root>
        <mxCell id="0" />
        <mxCell id="1" parent="0" />
        <mxCell id="ohwr-CJHMMBMM6PexBlp-1" value="&lt;font face=&quot;Garamond&quot; style=&quot;font-size: 20px;&quot;&gt;Quản lý du lịch&lt;/font&gt;" style="rounded=1;whiteSpace=wrap;html=1;fillColor=#dae8fc;strokeColor=#6c8ebf;gradientColor=#7ea6e0;" parent="1" vertex="1">
          <mxGeometry x="500" y="190" width="150" height="60" as="geometry" />
        </mxCell>
        <mxCell id="ohwr-CJHMMBMM6PexBlp-2" value="" style="endArrow=classic;html=1;rounded=1;curved=0;entryX=0.5;entryY=0;entryDx=0;entryDy=0;" parent="1" target="ohwr-CJHMMBMM6PexBlp-7" edge="1">
          <mxGeometry width="50" height="50" relative="1" as="geometry">
            <mxPoint x="570" y="280" as="sourcePoint" />
            <mxPoint x="320" y="330" as="targetPoint" />
            <Array as="points">
              <mxPoint x="360" y="280" />
            </Array>
          </mxGeometry>
        </mxCell>
        <mxCell id="ohwr-CJHMMBMM6PexBlp-4" value="" style="endArrow=classic;html=1;rounded=1;curved=0;" parent="1" edge="1">
          <mxGeometry width="50" height="50" relative="1" as="geometry">
            <mxPoint x="570" y="280" as="sourcePoint" />
            <mxPoint x="860" y="330" as="targetPoint" />
            <Array as="points">
              <mxPoint x="860" y="280" />
            </Array>
          </mxGeometry>
        </mxCell>
        <mxCell id="ohwr-CJHMMBMM6PexBlp-6" value="" style="endArrow=none;html=1;rounded=0;entryX=0.5;entryY=1;entryDx=0;entryDy=0;" parent="1" edge="1">
          <mxGeometry width="50" height="50" relative="1" as="geometry">
            <mxPoint x="580" y="280" as="sourcePoint" />
            <mxPoint x="580.36" y="250" as="targetPoint" />
          </mxGeometry>
        </mxCell>
        <mxCell id="ohwr-CJHMMBMM6PexBlp-7" value="&lt;font style=&quot;font-size: 18px;&quot;&gt;Người dùng&lt;/font&gt;" style="rounded=1;whiteSpace=wrap;html=1;fillStyle=solid;fillColor=#FFE6CC;strokeColor=#d6b656;gradientColor=#e6c665;" parent="1" vertex="1">
          <mxGeometry x="320" y="330" width="80" height="50" as="geometry" />
        </mxCell>
        <mxCell id="ohwr-CJHMMBMM6PexBlp-8" value="&lt;font style=&quot;font-size: 18px;&quot;&gt;Quản trị viên&lt;/font&gt;" style="rounded=1;whiteSpace=wrap;html=1;fillStyle=solid;fillColor=#FFE6CC;strokeColor=#d6b656;gradientColor=#e6c665;" parent="1" vertex="1">
          <mxGeometry x="820" y="330" width="80" height="50" as="geometry" />
        </mxCell>
        <mxCell id="ohwr-CJHMMBMM6PexBlp-9" value="" style="endArrow=classic;html=1;rounded=1;exitX=0.75;exitY=1;exitDx=0;exitDy=0;curved=0;fillColor=#e6d0de;gradientColor=#d5739d;strokeColor=#996185;" parent="1" edge="1">
          <mxGeometry width="50" height="50" relative="1" as="geometry">
            <mxPoint x="360.1699999999999" y="380" as="sourcePoint" />
            <mxPoint x="310" y="860" as="targetPoint" />
            <Array as="points">
              <mxPoint x="360.17" y="860" />
            </Array>
          </mxGeometry>
        </mxCell>
        <mxCell id="ohwr-CJHMMBMM6PexBlp-10" value="Đổi mật khẩu" style="rounded=1;whiteSpace=wrap;html=1;fillColor=#e6d0de;gradientColor=#d5739d;strokeColor=#996185;gradientDirection=radial;" parent="1" vertex="1">
          <mxGeometry x="230" y="840" width="80" height="50" as="geometry" />
        </mxCell>
        <mxCell id="ohwr-CJHMMBMM6PexBlp-11" value="" style="endArrow=classic;html=1;rounded=0;fillColor=#e6d0de;gradientColor=#d5739d;strokeColor=#996185;" parent="1" edge="1">
          <mxGeometry width="50" height="50" relative="1" as="geometry">
            <mxPoint x="360" y="770" as="sourcePoint" />
            <mxPoint x="310" y="770" as="targetPoint" />
          </mxGeometry>
        </mxCell>
        <mxCell id="ohwr-CJHMMBMM6PexBlp-12" value="" style="endArrow=classic;html=1;rounded=0;fillColor=#e6d0de;gradientColor=#d5739d;strokeColor=#996185;" parent="1" edge="1">
          <mxGeometry width="50" height="50" relative="1" as="geometry">
            <mxPoint x="360" y="610" as="sourcePoint" />
            <mxPoint x="310" y="610" as="targetPoint" />
          </mxGeometry>
        </mxCell>
        <mxCell id="ohwr-CJHMMBMM6PexBlp-13" value="" style="endArrow=classic;html=1;rounded=0;fillColor=#e6d0de;gradientColor=#d5739d;strokeColor=#996185;" parent="1" edge="1">
          <mxGeometry width="50" height="50" relative="1" as="geometry">
            <mxPoint x="360" y="510" as="sourcePoint" />
            <mxPoint x="310" y="510" as="targetPoint" />
          </mxGeometry>
        </mxCell>
        <mxCell id="ohwr-CJHMMBMM6PexBlp-16" value="Xem Tour đã đặt&lt;span style=&quot;color: rgba(0, 0, 0, 0); font-family: monospace; font-size: 0px; text-align: start; text-wrap-mode: nowrap;&quot;&gt;%3CmxGraphModel%3E%3Croot%3E%3CmxCell%20id%3D%220%22%2F%3E%3CmxCell%20id%3D%221%22%20parent%3D%220%22%2F%3E%3CmxCell%20id%3D%222%22%20value%3D%22%C4%90%E1%BB%95i%20m%E1%BA%ADt%20kh%E1%BA%A9u%22%20style%3D%22rounded%3D1%3BwhiteSpace%3Dwrap%3Bhtml%3D1%3B%22%20vertex%3D%221%22%20parent%3D%221%22%3E%3CmxGeometry%20x%3D%2250%22%20y%3D%22660%22%20width%3D%2280%22%20height%3D%2250%22%20as%3D%22geometry%22%2F%3E%3C%2FmxCell%3E%3C%2Froot%3E%3C%2FmxGraphModel%3E&lt;/span&gt;" style="rounded=1;whiteSpace=wrap;html=1;fillColor=#e6d0de;gradientColor=#d5739d;strokeColor=#996185;gradientDirection=radial;" parent="1" vertex="1">
          <mxGeometry x="230" y="740" width="80" height="50" as="geometry" />
        </mxCell>
        <mxCell id="ohwr-CJHMMBMM6PexBlp-17" value="Đặt tour" style="rounded=1;whiteSpace=wrap;html=1;fillColor=#e6d0de;gradientColor=#d5739d;strokeColor=#996185;gradientDirection=radial;" parent="1" vertex="1">
          <mxGeometry x="230" y="580" width="80" height="50" as="geometry" />
        </mxCell>
        <mxCell id="ohwr-CJHMMBMM6PexBlp-18" value="Xem tour hiện hàng" style="rounded=1;whiteSpace=wrap;html=1;fillColor=#e6d0de;gradientColor=#d5739d;strokeColor=#996185;gradientDirection=radial;" parent="1" vertex="1">
          <mxGeometry x="230" y="480" width="80" height="50" as="geometry" />
        </mxCell>
        <mxCell id="ohwr-CJHMMBMM6PexBlp-20" value="" style="endArrow=classic;html=1;rounded=0;fillColor=#e6d0de;gradientColor=#d5739d;strokeColor=#996185;" parent="1" edge="1">
          <mxGeometry width="50" height="50" relative="1" as="geometry">
            <mxPoint x="360" y="480" as="sourcePoint" />
            <mxPoint x="460" y="480" as="targetPoint" />
          </mxGeometry>
        </mxCell>
        <mxCell id="ohwr-CJHMMBMM6PexBlp-21" value="&lt;font style=&quot;font-size: 18px;&quot;&gt;Đăng nhập&lt;/font&gt;" style="rounded=1;whiteSpace=wrap;html=1;fillColor=#e6d0de;gradientColor=#d5739d;strokeColor=#996185;" parent="1" vertex="1">
          <mxGeometry x="460" y="450" width="80" height="60" as="geometry" />
        </mxCell>
        <mxCell id="ohwr-CJHMMBMM6PexBlp-22" value="" style="endArrow=classic;html=1;rounded=0;fillColor=#e6d0de;gradientColor=#d5739d;strokeColor=#996185;" parent="1" edge="1">
          <mxGeometry width="50" height="50" relative="1" as="geometry">
            <mxPoint x="360" y="670" as="sourcePoint" />
            <mxPoint x="460" y="670" as="targetPoint" />
          </mxGeometry>
        </mxCell>
        <mxCell id="ohwr-CJHMMBMM6PexBlp-23" value="&lt;font style=&quot;font-size: 18px;&quot;&gt;Đăng xuất&lt;/font&gt;" style="rounded=1;whiteSpace=wrap;html=1;fillColor=#e6d0de;gradientColor=#d5739d;strokeColor=#996185;" parent="1" vertex="1">
          <mxGeometry x="460" y="640" width="80" height="60" as="geometry" />
        </mxCell>
        <mxCell id="ohwr-CJHMMBMM6PexBlp-24" value="" style="endArrow=classic;startArrow=classic;html=1;rounded=1;exitX=1;exitY=0.5;exitDx=0;exitDy=0;entryX=1;entryY=0.5;entryDx=0;entryDy=0;curved=0;fillColor=#e6d0de;gradientColor=#d5739d;strokeColor=#996185;" parent="1" source="ohwr-CJHMMBMM6PexBlp-23" target="ohwr-CJHMMBMM6PexBlp-21" edge="1">
          <mxGeometry width="50" height="50" relative="1" as="geometry">
            <mxPoint x="590" y="610" as="sourcePoint" />
            <mxPoint x="640" y="560" as="targetPoint" />
            <Array as="points">
              <mxPoint x="580" y="670" />
              <mxPoint x="580" y="480" />
            </Array>
          </mxGeometry>
        </mxCell>
        <mxCell id="ohwr-CJHMMBMM6PexBlp-25" value="" style="endArrow=classic;html=1;rounded=1;curved=0;" parent="1" edge="1">
          <mxGeometry width="50" height="50" relative="1" as="geometry">
            <mxPoint x="580" y="580" as="sourcePoint" />
            <mxPoint x="690" y="450" as="targetPoint" />
            <Array as="points">
              <mxPoint x="620" y="580" />
              <mxPoint x="620" y="420" />
              <mxPoint x="690" y="420" />
            </Array>
          </mxGeometry>
        </mxCell>
        <mxCell id="ohwr-CJHMMBMM6PexBlp-26" value="&lt;font style=&quot;font-size: 16px;&quot;&gt;Quản lý nhân viên&lt;/font&gt;" style="rounded=1;whiteSpace=wrap;html=1;fillColor=#d5e8d4;gradientColor=#97d077;strokeColor=#CCFFCC;gradientDirection=radial;" parent="1" vertex="1">
          <mxGeometry x="660" y="450" width="60" height="60" as="geometry" />
        </mxCell>
        <mxCell id="ohwr-CJHMMBMM6PexBlp-27" value="" style="endArrow=classic;html=1;rounded=0;fillColor=#d5e8d4;gradientColor=#97d077;strokeColor=#CCFFCC;" parent="1" edge="1">
          <mxGeometry width="50" height="50" relative="1" as="geometry">
            <mxPoint x="680" y="420" as="sourcePoint" />
            <mxPoint x="790" y="450" as="targetPoint" />
            <Array as="points">
              <mxPoint x="790" y="420" />
            </Array>
          </mxGeometry>
        </mxCell>
        <mxCell id="ohwr-CJHMMBMM6PexBlp-28" value="" style="endArrow=classic;html=1;rounded=0;fillColor=#d5e8d4;gradientColor=#97d077;strokeColor=#CCFFCC;" parent="1" edge="1">
          <mxGeometry width="50" height="50" relative="1" as="geometry">
            <mxPoint x="790" y="420" as="sourcePoint" />
            <mxPoint x="920" y="450" as="targetPoint" />
            <Array as="points">
              <mxPoint x="920" y="420" />
            </Array>
          </mxGeometry>
        </mxCell>
        <mxCell id="ohwr-CJHMMBMM6PexBlp-29" value="" style="endArrow=classic;html=1;rounded=0;fillColor=#d5e8d4;gradientColor=#97d077;strokeColor=#CCFFCC;" parent="1" edge="1">
          <mxGeometry width="50" height="50" relative="1" as="geometry">
            <mxPoint x="920" y="420" as="sourcePoint" />
            <mxPoint x="1030" y="450" as="targetPoint" />
            <Array as="points">
              <mxPoint x="1030" y="420" />
            </Array>
          </mxGeometry>
        </mxCell>
        <mxCell id="ohwr-CJHMMBMM6PexBlp-30" value="&lt;font style=&quot;font-size: 16px;&quot;&gt;Quản lý xe&lt;/font&gt;" style="rounded=1;whiteSpace=wrap;html=1;fillColor=#d5e8d4;gradientColor=#97d077;strokeColor=#CCFFCC;gradientDirection=radial;" parent="1" vertex="1">
          <mxGeometry x="765" y="450" width="60" height="60" as="geometry" />
        </mxCell>
        <mxCell id="ohwr-CJHMMBMM6PexBlp-31" value="&lt;font style=&quot;font-size: 16px;&quot;&gt;Quản lý khách sạn&lt;/font&gt;" style="rounded=1;whiteSpace=wrap;html=1;fillColor=#d5e8d4;gradientColor=#97d077;strokeColor=#CCFFCC;gradientDirection=radial;" parent="1" vertex="1">
          <mxGeometry x="880" y="450" width="60" height="60" as="geometry" />
        </mxCell>
        <mxCell id="ohwr-CJHMMBMM6PexBlp-32" value="&lt;font style=&quot;font-size: 16px;&quot;&gt;Quản lý Tour&lt;/font&gt;" style="rounded=1;whiteSpace=wrap;html=1;fillColor=#d5e8d4;gradientColor=#97d077;strokeColor=#CCFFCC;gradientDirection=radial;" parent="1" vertex="1">
          <mxGeometry x="1000" y="450" width="60" height="60" as="geometry" />
        </mxCell>
        <mxCell id="ohwr-CJHMMBMM6PexBlp-33" value="" style="endArrow=classic;html=1;rounded=0;fillColor=#d5e8d4;gradientColor=#97d077;strokeColor=#CCFFCC;" parent="1" edge="1">
          <mxGeometry width="50" height="50" relative="1" as="geometry">
            <mxPoint x="1030" y="420" as="sourcePoint" />
            <mxPoint x="1130" y="450" as="targetPoint" />
            <Array as="points">
              <mxPoint x="1130" y="420" />
            </Array>
          </mxGeometry>
        </mxCell>
        <mxCell id="ohwr-CJHMMBMM6PexBlp-34" value="&lt;font style=&quot;font-size: 16px;&quot;&gt;Quản lý vé&lt;/font&gt;" style="rounded=1;whiteSpace=wrap;html=1;fillColor=#d5e8d4;gradientColor=#97d077;strokeColor=#CCFFCC;gradientDirection=radial;" parent="1" vertex="1">
          <mxGeometry x="1100" y="450" width="60" height="60" as="geometry" />
        </mxCell>
        <mxCell id="ohwr-CJHMMBMM6PexBlp-35" value="" style="endArrow=classic;html=1;rounded=0;fillColor=#d5e8d4;gradientColor=#97d077;strokeColor=#CCFFCC;" parent="1" edge="1">
          <mxGeometry width="50" height="50" relative="1" as="geometry">
            <mxPoint x="1130" y="420" as="sourcePoint" />
            <mxPoint x="1240" y="450" as="targetPoint" />
            <Array as="points">
              <mxPoint x="1240" y="420" />
            </Array>
          </mxGeometry>
        </mxCell>
        <mxCell id="ohwr-CJHMMBMM6PexBlp-36" value="&lt;span style=&quot;font-size: 16px;&quot;&gt;Thống kê vé&lt;/span&gt;" style="rounded=1;whiteSpace=wrap;html=1;fillColor=#d5e8d4;gradientColor=#97d077;strokeColor=#CCFFCC;gradientDirection=radial;" parent="1" vertex="1">
          <mxGeometry x="1200" y="450" width="60" height="60" as="geometry" />
        </mxCell>
        <mxCell id="ohwr-CJHMMBMM6PexBlp-37" value="" style="endArrow=classic;html=1;rounded=1;curved=0;fillColor=#d5e8d4;gradientColor=#97d077;strokeColor=#CCFFCC;" parent="1" edge="1">
          <mxGeometry width="50" height="50" relative="1" as="geometry">
            <mxPoint x="1240" y="420" as="sourcePoint" />
            <mxPoint x="1410" y="450" as="targetPoint" />
            <Array as="points">
              <mxPoint x="1410" y="420" />
            </Array>
          </mxGeometry>
        </mxCell>
        <mxCell id="ohwr-CJHMMBMM6PexBlp-38" value="&lt;font style=&quot;font-size: 16px;&quot;&gt;Quản lý Tài khoản&lt;/font&gt;" style="rounded=1;whiteSpace=wrap;html=1;fillColor=#d5e8d4;gradientColor=#97d077;strokeColor=#CCFFCC;gradientDirection=radial;" parent="1" vertex="1">
          <mxGeometry x="1380" y="450" width="60" height="60" as="geometry" />
        </mxCell>
        <mxCell id="ohwr-CJHMMBMM6PexBlp-39" value="" style="endArrow=classic;html=1;rounded=1;exitX=0.5;exitY=1;exitDx=0;exitDy=0;entryX=0;entryY=0.75;entryDx=0;entryDy=0;curved=0;" parent="1" target="ohwr-CJHMMBMM6PexBlp-52" edge="1">
          <mxGeometry width="50" height="50" relative="1" as="geometry">
            <mxPoint x="670" y="510" as="sourcePoint" />
            <mxPoint x="700" y="940" as="targetPoint" />
            <Array as="points">
              <mxPoint x="670" y="860" />
            </Array>
          </mxGeometry>
        </mxCell>
        <mxCell id="ohwr-CJHMMBMM6PexBlp-44" value="" style="endArrow=classic;html=1;rounded=0;" parent="1" edge="1">
          <mxGeometry width="50" height="50" relative="1" as="geometry">
            <mxPoint x="670" y="590" as="sourcePoint" />
            <mxPoint x="700" y="590" as="targetPoint" />
          </mxGeometry>
        </mxCell>
        <mxCell id="ohwr-CJHMMBMM6PexBlp-45" value="" style="endArrow=classic;html=1;rounded=0;" parent="1" edge="1">
          <mxGeometry width="50" height="50" relative="1" as="geometry">
            <mxPoint x="670" y="680" as="sourcePoint" />
            <mxPoint x="700" y="680" as="targetPoint" />
          </mxGeometry>
        </mxCell>
        <mxCell id="ohwr-CJHMMBMM6PexBlp-47" value="" style="endArrow=classic;html=1;rounded=0;" parent="1" edge="1">
          <mxGeometry width="50" height="50" relative="1" as="geometry">
            <mxPoint x="670" y="770" as="sourcePoint" />
            <mxPoint x="700" y="770" as="targetPoint" />
          </mxGeometry>
        </mxCell>
        <mxCell id="ohwr-CJHMMBMM6PexBlp-49" value="&lt;font&gt;Xem danh sách nhân viên&lt;/font&gt;" style="whiteSpace=wrap;html=1;aspect=fixed;fillColor=#f5f5f5;gradientColor=#b3b3b3;strokeColor=#666666;gradientDirection=radial;" parent="1" vertex="1">
          <mxGeometry x="700" y="560" width="60" height="60" as="geometry" />
        </mxCell>
        <mxCell id="ohwr-CJHMMBMM6PexBlp-50" value="&lt;font&gt;Thêm nhân viên&lt;/font&gt;" style="whiteSpace=wrap;html=1;aspect=fixed;fillColor=#f5f5f5;gradientColor=#b3b3b3;strokeColor=#666666;gradientDirection=radial;" parent="1" vertex="1">
          <mxGeometry x="700" y="660" width="50" height="50" as="geometry" />
        </mxCell>
        <mxCell id="ohwr-CJHMMBMM6PexBlp-51" value="&lt;font&gt;Sửa nhân viên&lt;/font&gt;" style="whiteSpace=wrap;html=1;aspect=fixed;fillColor=#f5f5f5;gradientColor=#b3b3b3;strokeColor=#666666;gradientDirection=radial;" parent="1" vertex="1">
          <mxGeometry x="700" y="740" width="50" height="50" as="geometry" />
        </mxCell>
        <mxCell id="ohwr-CJHMMBMM6PexBlp-52" value="&lt;font&gt;Xoá nhân viên&lt;/font&gt;" style="whiteSpace=wrap;html=1;aspect=fixed;fillColor=#f5f5f5;gradientColor=#b3b3b3;strokeColor=#666666;gradientDirection=radial;" parent="1" vertex="1">
          <mxGeometry x="700" y="820" width="50" height="50" as="geometry" />
        </mxCell>
        <mxCell id="ohwr-CJHMMBMM6PexBlp-56" value="" style="endArrow=none;html=1;rounded=0;" parent="1" edge="1">
          <mxGeometry width="50" height="50" relative="1" as="geometry">
            <mxPoint x="860" y="420" as="sourcePoint" />
            <mxPoint x="860" y="380" as="targetPoint" />
          </mxGeometry>
        </mxCell>
        <mxCell id="ohwr-CJHMMBMM6PexBlp-57" value="" style="endArrow=classic;html=1;rounded=1;exitX=0.5;exitY=1;exitDx=0;exitDy=0;entryX=0;entryY=0.75;entryDx=0;entryDy=0;curved=0;" parent="1" target="ohwr-CJHMMBMM6PexBlp-64" edge="1">
          <mxGeometry width="50" height="50" relative="1" as="geometry">
            <mxPoint x="770" y="510" as="sourcePoint" />
            <mxPoint x="800" y="940" as="targetPoint" />
            <Array as="points">
              <mxPoint x="770" y="860" />
            </Array>
          </mxGeometry>
        </mxCell>
        <mxCell id="ohwr-CJHMMBMM6PexBlp-58" value="" style="endArrow=classic;html=1;rounded=0;" parent="1" edge="1">
          <mxGeometry width="50" height="50" relative="1" as="geometry">
            <mxPoint x="770" y="590" as="sourcePoint" />
            <mxPoint x="800" y="590" as="targetPoint" />
          </mxGeometry>
        </mxCell>
        <mxCell id="ohwr-CJHMMBMM6PexBlp-59" value="" style="endArrow=classic;html=1;rounded=0;" parent="1" edge="1">
          <mxGeometry width="50" height="50" relative="1" as="geometry">
            <mxPoint x="770" y="680" as="sourcePoint" />
            <mxPoint x="800" y="680" as="targetPoint" />
          </mxGeometry>
        </mxCell>
        <mxCell id="ohwr-CJHMMBMM6PexBlp-60" value="" style="endArrow=classic;html=1;rounded=0;" parent="1" edge="1">
          <mxGeometry width="50" height="50" relative="1" as="geometry">
            <mxPoint x="770" y="770" as="sourcePoint" />
            <mxPoint x="800" y="770" as="targetPoint" />
          </mxGeometry>
        </mxCell>
        <mxCell id="ohwr-CJHMMBMM6PexBlp-61" value="&lt;font&gt;Xem danh sách xe&lt;/font&gt;" style="whiteSpace=wrap;html=1;aspect=fixed;fillColor=#f5f5f5;gradientColor=#b3b3b3;strokeColor=#666666;gradientDirection=radial;" parent="1" vertex="1">
          <mxGeometry x="800" y="560" width="60" height="60" as="geometry" />
        </mxCell>
        <mxCell id="ohwr-CJHMMBMM6PexBlp-62" value="&lt;font&gt;Thêm xe&lt;/font&gt;" style="whiteSpace=wrap;html=1;aspect=fixed;fillColor=#f5f5f5;gradientColor=#b3b3b3;strokeColor=#666666;gradientDirection=radial;" parent="1" vertex="1">
          <mxGeometry x="800" y="660" width="50" height="50" as="geometry" />
        </mxCell>
        <mxCell id="ohwr-CJHMMBMM6PexBlp-63" value="&lt;font&gt;Sửa xe&lt;/font&gt;" style="whiteSpace=wrap;html=1;aspect=fixed;fillColor=#f5f5f5;gradientColor=#b3b3b3;strokeColor=#666666;gradientDirection=radial;" parent="1" vertex="1">
          <mxGeometry x="800" y="740" width="50" height="50" as="geometry" />
        </mxCell>
        <mxCell id="ohwr-CJHMMBMM6PexBlp-64" value="&lt;font&gt;Xoá xe&lt;/font&gt;" style="whiteSpace=wrap;html=1;aspect=fixed;fillColor=#f5f5f5;gradientColor=#b3b3b3;strokeColor=#666666;gradientDirection=radial;" parent="1" vertex="1">
          <mxGeometry x="800" y="820" width="50" height="50" as="geometry" />
        </mxCell>
        <mxCell id="ohwr-CJHMMBMM6PexBlp-65" value="" style="endArrow=classic;html=1;rounded=1;exitX=0.5;exitY=1;exitDx=0;exitDy=0;curved=0;" parent="1" edge="1">
          <mxGeometry width="50" height="50" relative="1" as="geometry">
            <mxPoint x="890" y="510" as="sourcePoint" />
            <mxPoint x="920" y="860" as="targetPoint" />
            <Array as="points">
              <mxPoint x="890" y="860" />
            </Array>
          </mxGeometry>
        </mxCell>
        <mxCell id="ohwr-CJHMMBMM6PexBlp-66" value="" style="endArrow=classic;html=1;rounded=0;" parent="1" edge="1">
          <mxGeometry width="50" height="50" relative="1" as="geometry">
            <mxPoint x="890" y="590" as="sourcePoint" />
            <mxPoint x="920" y="590" as="targetPoint" />
          </mxGeometry>
        </mxCell>
        <mxCell id="ohwr-CJHMMBMM6PexBlp-67" value="" style="endArrow=classic;html=1;rounded=0;" parent="1" edge="1">
          <mxGeometry width="50" height="50" relative="1" as="geometry">
            <mxPoint x="890" y="680" as="sourcePoint" />
            <mxPoint x="920" y="680" as="targetPoint" />
          </mxGeometry>
        </mxCell>
        <mxCell id="ohwr-CJHMMBMM6PexBlp-68" value="" style="endArrow=classic;html=1;rounded=0;" parent="1" edge="1">
          <mxGeometry width="50" height="50" relative="1" as="geometry">
            <mxPoint x="890" y="770" as="sourcePoint" />
            <mxPoint x="920" y="770" as="targetPoint" />
          </mxGeometry>
        </mxCell>
        <mxCell id="ohwr-CJHMMBMM6PexBlp-69" value="&lt;font&gt;Xem danh sách khách sạn&lt;/font&gt;" style="whiteSpace=wrap;html=1;aspect=fixed;fillColor=#f5f5f5;gradientColor=#b3b3b3;strokeColor=#666666;gradientDirection=radial;" parent="1" vertex="1">
          <mxGeometry x="920" y="560" width="60" height="60" as="geometry" />
        </mxCell>
        <mxCell id="ohwr-CJHMMBMM6PexBlp-70" value="&lt;font&gt;Thêm khách sạn&lt;/font&gt;" style="whiteSpace=wrap;html=1;aspect=fixed;fillColor=#f5f5f5;gradientColor=#b3b3b3;strokeColor=#666666;gradientDirection=radial;" parent="1" vertex="1">
          <mxGeometry x="920" y="660" width="50" height="50" as="geometry" />
        </mxCell>
        <mxCell id="ohwr-CJHMMBMM6PexBlp-71" value="&lt;font&gt;Sửa&amp;nbsp;&lt;/font&gt;khách sạn" style="whiteSpace=wrap;html=1;aspect=fixed;fillColor=#f5f5f5;gradientColor=#b3b3b3;strokeColor=#666666;gradientDirection=radial;" parent="1" vertex="1">
          <mxGeometry x="920" y="740" width="60" height="60" as="geometry" />
        </mxCell>
        <mxCell id="ohwr-CJHMMBMM6PexBlp-72" value="&lt;font&gt;Xoá&amp;nbsp;&lt;/font&gt;khách sạn" style="whiteSpace=wrap;html=1;aspect=fixed;fillColor=#f5f5f5;gradientColor=#b3b3b3;strokeColor=#666666;gradientDirection=radial;" parent="1" vertex="1">
          <mxGeometry x="920" y="840" width="60" height="60" as="geometry" />
        </mxCell>
        <mxCell id="ohwr-CJHMMBMM6PexBlp-73" value="" style="endArrow=classic;html=1;rounded=1;exitX=0.5;exitY=1;exitDx=0;exitDy=0;entryX=0;entryY=0.75;entryDx=0;entryDy=0;curved=0;" parent="1" target="ohwr-CJHMMBMM6PexBlp-80" edge="1">
          <mxGeometry width="50" height="50" relative="1" as="geometry">
            <mxPoint x="1010" y="510" as="sourcePoint" />
            <mxPoint x="1040" y="940" as="targetPoint" />
            <Array as="points">
              <mxPoint x="1010" y="860" />
            </Array>
          </mxGeometry>
        </mxCell>
        <mxCell id="ohwr-CJHMMBMM6PexBlp-74" value="" style="endArrow=classic;html=1;rounded=0;" parent="1" edge="1">
          <mxGeometry width="50" height="50" relative="1" as="geometry">
            <mxPoint x="1010" y="590" as="sourcePoint" />
            <mxPoint x="1040" y="590" as="targetPoint" />
          </mxGeometry>
        </mxCell>
        <mxCell id="ohwr-CJHMMBMM6PexBlp-75" value="" style="endArrow=classic;html=1;rounded=0;" parent="1" edge="1">
          <mxGeometry width="50" height="50" relative="1" as="geometry">
            <mxPoint x="1010" y="680" as="sourcePoint" />
            <mxPoint x="1040" y="680" as="targetPoint" />
          </mxGeometry>
        </mxCell>
        <mxCell id="ohwr-CJHMMBMM6PexBlp-76" value="" style="endArrow=classic;html=1;rounded=0;" parent="1" edge="1">
          <mxGeometry width="50" height="50" relative="1" as="geometry">
            <mxPoint x="1010" y="770" as="sourcePoint" />
            <mxPoint x="1040" y="770" as="targetPoint" />
          </mxGeometry>
        </mxCell>
        <mxCell id="ohwr-CJHMMBMM6PexBlp-77" value="&lt;font&gt;Xem danh sách Tour&lt;/font&gt;" style="whiteSpace=wrap;html=1;aspect=fixed;fillColor=#f5f5f5;gradientColor=#b3b3b3;strokeColor=#666666;gradientDirection=radial;" parent="1" vertex="1">
          <mxGeometry x="1040" y="560" width="60" height="60" as="geometry" />
        </mxCell>
        <mxCell id="ohwr-CJHMMBMM6PexBlp-78" value="&lt;font&gt;Thêm&amp;nbsp;&lt;/font&gt;Tour" style="whiteSpace=wrap;html=1;aspect=fixed;fillColor=#f5f5f5;gradientColor=#b3b3b3;strokeColor=#666666;gradientDirection=radial;" parent="1" vertex="1">
          <mxGeometry x="1040" y="660" width="60" height="60" as="geometry" />
        </mxCell>
        <mxCell id="ohwr-CJHMMBMM6PexBlp-79" value="&lt;font&gt;Sửa&amp;nbsp;&lt;/font&gt;Tour" style="whiteSpace=wrap;html=1;aspect=fixed;fillColor=#f5f5f5;gradientColor=#b3b3b3;strokeColor=#666666;gradientDirection=radial;" parent="1" vertex="1">
          <mxGeometry x="1040" y="740" width="50" height="50" as="geometry" />
        </mxCell>
        <mxCell id="ohwr-CJHMMBMM6PexBlp-80" value="&lt;font&gt;Xoá&amp;nbsp;&lt;/font&gt;Tour" style="whiteSpace=wrap;html=1;aspect=fixed;fillColor=#f5f5f5;gradientColor=#b3b3b3;strokeColor=#666666;gradientDirection=radial;" parent="1" vertex="1">
          <mxGeometry x="1040" y="820" width="50" height="50" as="geometry" />
        </mxCell>
        <mxCell id="ohwr-CJHMMBMM6PexBlp-81" value="" style="endArrow=classic;html=1;rounded=1;exitX=0.5;exitY=1;exitDx=0;exitDy=0;entryX=0;entryY=0.75;entryDx=0;entryDy=0;curved=0;" parent="1" target="ohwr-CJHMMBMM6PexBlp-88" edge="1">
          <mxGeometry width="50" height="50" relative="1" as="geometry">
            <mxPoint x="1110" y="510" as="sourcePoint" />
            <mxPoint x="1140" y="940" as="targetPoint" />
            <Array as="points">
              <mxPoint x="1110" y="860" />
            </Array>
          </mxGeometry>
        </mxCell>
        <mxCell id="ohwr-CJHMMBMM6PexBlp-82" value="" style="endArrow=classic;html=1;rounded=0;" parent="1" edge="1">
          <mxGeometry width="50" height="50" relative="1" as="geometry">
            <mxPoint x="1110" y="590" as="sourcePoint" />
            <mxPoint x="1140" y="590" as="targetPoint" />
          </mxGeometry>
        </mxCell>
        <mxCell id="ohwr-CJHMMBMM6PexBlp-83" value="" style="endArrow=classic;html=1;rounded=0;" parent="1" edge="1">
          <mxGeometry width="50" height="50" relative="1" as="geometry">
            <mxPoint x="1110" y="680" as="sourcePoint" />
            <mxPoint x="1140" y="680" as="targetPoint" />
          </mxGeometry>
        </mxCell>
        <mxCell id="ohwr-CJHMMBMM6PexBlp-84" value="" style="endArrow=classic;html=1;rounded=0;" parent="1" edge="1">
          <mxGeometry width="50" height="50" relative="1" as="geometry">
            <mxPoint x="1110" y="770" as="sourcePoint" />
            <mxPoint x="1140" y="770" as="targetPoint" />
          </mxGeometry>
        </mxCell>
        <mxCell id="ohwr-CJHMMBMM6PexBlp-85" value="&lt;font&gt;Xem danh sách vé&lt;/font&gt;" style="whiteSpace=wrap;html=1;aspect=fixed;fillColor=#f5f5f5;gradientColor=#b3b3b3;strokeColor=#666666;gradientDirection=radial;" parent="1" vertex="1">
          <mxGeometry x="1140" y="560" width="60" height="60" as="geometry" />
        </mxCell>
        <mxCell id="ohwr-CJHMMBMM6PexBlp-86" value="&lt;font&gt;Thêm vé&lt;/font&gt;" style="whiteSpace=wrap;html=1;aspect=fixed;fillColor=#f5f5f5;gradientColor=#b3b3b3;strokeColor=#666666;gradientDirection=radial;" parent="1" vertex="1">
          <mxGeometry x="1140" y="660" width="50" height="50" as="geometry" />
        </mxCell>
        <mxCell id="ohwr-CJHMMBMM6PexBlp-87" value="&lt;font&gt;Sửa vé&lt;/font&gt;" style="whiteSpace=wrap;html=1;aspect=fixed;fillColor=#f5f5f5;gradientColor=#b3b3b3;strokeColor=#666666;gradientDirection=radial;" parent="1" vertex="1">
          <mxGeometry x="1140" y="740" width="50" height="50" as="geometry" />
        </mxCell>
        <mxCell id="ohwr-CJHMMBMM6PexBlp-88" value="&lt;font&gt;Xoá vé&lt;/font&gt;" style="whiteSpace=wrap;html=1;aspect=fixed;fillColor=#f5f5f5;gradientColor=#b3b3b3;strokeColor=#666666;gradientDirection=radial;" parent="1" vertex="1">
          <mxGeometry x="1140" y="820" width="50" height="50" as="geometry" />
        </mxCell>
        <mxCell id="ohwr-CJHMMBMM6PexBlp-92" value="" style="endArrow=classic;startArrow=classic;html=1;rounded=1;curved=0;" parent="1" edge="1">
          <mxGeometry width="50" height="50" relative="1" as="geometry">
            <mxPoint x="1300" y="560" as="sourcePoint" />
            <mxPoint x="1520" y="560" as="targetPoint" />
            <Array as="points">
              <mxPoint x="1300" y="530" />
              <mxPoint x="1520" y="530" />
            </Array>
          </mxGeometry>
        </mxCell>
        <mxCell id="ohwr-CJHMMBMM6PexBlp-93" value="" style="endArrow=none;html=1;rounded=0;fillColor=#d5e8d4;gradientColor=#97d077;strokeColor=#CCFFCC;" parent="1" edge="1">
          <mxGeometry width="50" height="50" relative="1" as="geometry">
            <mxPoint x="1420" y="530" as="sourcePoint" />
            <mxPoint x="1420" y="510" as="targetPoint" />
          </mxGeometry>
        </mxCell>
        <mxCell id="ohwr-CJHMMBMM6PexBlp-94" value="&lt;font style=&quot;font-size: 15px;&quot;&gt;Quản lý tài khoản Admin&lt;/font&gt;" style="whiteSpace=wrap;html=1;aspect=fixed;fillColor=#f5f5f5;gradientColor=#b3b3b3;strokeColor=#666666;gradientDirection=radial;" parent="1" vertex="1">
          <mxGeometry x="1270" y="560" width="70" height="70" as="geometry" />
        </mxCell>
        <mxCell id="ohwr-CJHMMBMM6PexBlp-95" value="&lt;font style=&quot;font-size: 15px;&quot;&gt;Quản lý tài khoản User&lt;/font&gt;" style="whiteSpace=wrap;html=1;aspect=fixed;fillColor=#f5f5f5;gradientColor=#b3b3b3;strokeColor=#666666;gradientDirection=radial;" parent="1" vertex="1">
          <mxGeometry x="1490" y="560" width="70" height="70" as="geometry" />
        </mxCell>
        <mxCell id="ohwr-CJHMMBMM6PexBlp-104" value="" style="endArrow=classic;html=1;rounded=1;exitX=0.5;exitY=1;exitDx=0;exitDy=0;entryX=0;entryY=0.75;entryDx=0;entryDy=0;curved=0;" parent="1" target="ohwr-CJHMMBMM6PexBlp-109" edge="1">
          <mxGeometry width="50" height="50" relative="1" as="geometry">
            <mxPoint x="1280" y="630" as="sourcePoint" />
            <mxPoint x="1310" y="1060" as="targetPoint" />
            <Array as="points">
              <mxPoint x="1280" y="828" />
            </Array>
          </mxGeometry>
        </mxCell>
        <mxCell id="ohwr-CJHMMBMM6PexBlp-105" value="" style="endArrow=classic;html=1;rounded=0;" parent="1" edge="1">
          <mxGeometry width="50" height="50" relative="1" as="geometry">
            <mxPoint x="1280" y="670" as="sourcePoint" />
            <mxPoint x="1310" y="670" as="targetPoint" />
          </mxGeometry>
        </mxCell>
        <mxCell id="ohwr-CJHMMBMM6PexBlp-106" value="" style="endArrow=classic;html=1;rounded=0;entryX=0.002;entryY=0.573;entryDx=0;entryDy=0;entryPerimeter=0;" parent="1" target="ohwr-CJHMMBMM6PexBlp-108" edge="1">
          <mxGeometry width="50" height="50" relative="1" as="geometry">
            <mxPoint x="1280" y="740" as="sourcePoint" />
            <mxPoint x="1310" y="740" as="targetPoint" />
          </mxGeometry>
        </mxCell>
        <mxCell id="ohwr-CJHMMBMM6PexBlp-107" value="&lt;font&gt;Xem danh sách tài khoản&lt;/font&gt;" style="whiteSpace=wrap;html=1;aspect=fixed;fillColor=#f5f5f5;gradientColor=#b3b3b3;strokeColor=#666666;gradientDirection=radial;" parent="1" vertex="1">
          <mxGeometry x="1310" y="640" width="60" height="60" as="geometry" />
        </mxCell>
        <mxCell id="ohwr-CJHMMBMM6PexBlp-108" value="&lt;font&gt;Sửa tài khoản&lt;/font&gt;" style="whiteSpace=wrap;html=1;aspect=fixed;fillColor=#f5f5f5;gradientColor=#b3b3b3;strokeColor=#666666;gradientDirection=radial;" parent="1" vertex="1">
          <mxGeometry x="1320" y="710" width="50" height="50" as="geometry" />
        </mxCell>
        <mxCell id="ohwr-CJHMMBMM6PexBlp-109" value="&lt;font&gt;Xoá&amp;nbsp;&lt;/font&gt;tài khoản" style="whiteSpace=wrap;html=1;aspect=fixed;fillColor=#f5f5f5;gradientColor=#b3b3b3;strokeColor=#666666;gradientDirection=radial;" parent="1" vertex="1">
          <mxGeometry x="1320" y="790" width="50" height="50" as="geometry" />
        </mxCell>
        <mxCell id="ohwr-CJHMMBMM6PexBlp-113" value="&lt;font&gt;Xem danh sách tài khoản&lt;/font&gt;" style="whiteSpace=wrap;html=1;aspect=fixed;fillColor=#f5f5f5;gradientColor=#b3b3b3;strokeColor=#666666;gradientDirection=radial;" parent="1" vertex="1">
          <mxGeometry x="1440" y="640" width="60" height="60" as="geometry" />
        </mxCell>
        <mxCell id="ohwr-CJHMMBMM6PexBlp-114" value="&lt;font&gt;Sửa tài khoản&lt;/font&gt;" style="whiteSpace=wrap;html=1;aspect=fixed;fillColor=#f5f5f5;gradientColor=#b3b3b3;strokeColor=#666666;gradientDirection=radial;" parent="1" vertex="1">
          <mxGeometry x="1440" y="710" width="50" height="50" as="geometry" />
        </mxCell>
        <mxCell id="ohwr-CJHMMBMM6PexBlp-115" value="&lt;font&gt;Xoá&amp;nbsp;&lt;/font&gt;tài khoản" style="whiteSpace=wrap;html=1;aspect=fixed;fillColor=#f5f5f5;gradientColor=#b3b3b3;strokeColor=#666666;gradientDirection=radial;" parent="1" vertex="1">
          <mxGeometry x="1440" y="790" width="50" height="50" as="geometry" />
        </mxCell>
        <mxCell id="ohwr-CJHMMBMM6PexBlp-116" value="" style="endArrow=classic;html=1;rounded=1;exitX=0.853;exitY=1.009;exitDx=0;exitDy=0;exitPerimeter=0;curved=0;" parent="1" source="ohwr-CJHMMBMM6PexBlp-95" edge="1">
          <mxGeometry width="50" height="50" relative="1" as="geometry">
            <mxPoint x="1550" y="830" as="sourcePoint" />
            <mxPoint x="1490" y="830" as="targetPoint" />
            <Array as="points">
              <mxPoint x="1550" y="830" />
            </Array>
          </mxGeometry>
        </mxCell>
        <mxCell id="ohwr-CJHMMBMM6PexBlp-117" value="" style="endArrow=classic;html=1;rounded=0;entryX=1;entryY=0.5;entryDx=0;entryDy=0;" parent="1" target="ohwr-CJHMMBMM6PexBlp-113" edge="1">
          <mxGeometry width="50" height="50" relative="1" as="geometry">
            <mxPoint x="1550" y="670" as="sourcePoint" />
            <mxPoint x="1440" y="630" as="targetPoint" />
          </mxGeometry>
        </mxCell>
        <mxCell id="ohwr-CJHMMBMM6PexBlp-118" value="" style="endArrow=classic;html=1;rounded=0;entryX=1;entryY=0.5;entryDx=0;entryDy=0;" parent="1" edge="1">
          <mxGeometry width="50" height="50" relative="1" as="geometry">
            <mxPoint x="1550" y="740" as="sourcePoint" />
            <mxPoint x="1490" y="740" as="targetPoint" />
          </mxGeometry>
        </mxCell>
      </root>
    </mxGraphModel>
  </diagram>
</mxfile>
